<?xml version="1.0" encoding="utf-8"?>
<!DOCTYPE svg PUBLIC "-//W3C//DTD SVG 1.1//EN" "http://www.w3.org/Graphics/SVG/1.1/DTD/svg11.dtd">
<?xml-model schematypens="http://relaxng.org/ns/structure/1.0" href="http://www.w3.org/Graphics/SVG/1.2/rng/Full-1.2/Full-1.2.rng"?>
<svg id="favicon" width="48" height="48" viewBox="0 0 16 16" xmlns="http://www.w3.org/2000/svg" xmlns:xlink="http://www.w3.org/1999/xlink">
	<metadata xmlns:html="http://www.w3.org/1999/xhtml">
		<html:meta name="robots" content="index, nofollow"/>
		<html:link rel="canonical" href="/favicon.ico"/>
		<html:link rel="icon" href="#test"/>
	</metadata>
	<title>Favicon</title>
	<desc>Favicon</desc>
	<style type="text/css">
		:root {width: 100%; height: 100%; fill: none; color: #FFF; background-color: #EDD;}
		:root:target {color: #AAA; background-color: #000;}
		:root:hover {background: repeating-conic-gradient(#0000 0% 25%, #0001 25% 50%) 50%/12.5vmin 12.5vmin;}
		rect:target {fill: var(--c, none);}
		symbol:target {color: #AAA;}
		a:hover {color: #000;}
		#c {stroke: currentcolor; stroke-width: 25%; stroke-dasharray: 160%; stroke-dashoffset: -18%;}
	</style>
	<view id="test" viewBox="-4 -4 24 24"><title>Test</title></view>
	<rect id="index" width="100%" height="100%" style="--c: #EDD;"/>
	<rect id="events" width="100%" height="100%" style="--c: #EDD;"/>
	<rect id="music" width="100%" height="100%" style="--c: #EAE;"/>
	<rect id="media" width="100%" height="100%" style="--c: #EEA;"/>
	<rect id="links" width="100%" height="100%" style="--c: #AEE;"/>
	<rect id="error" width="100%" height="100%" style="--c: #F00;"/>
	<circle cx="50%" cy="50%" r="50%" fill="#0001"/>
	<circle id="c" cx="50%" cy="50%" r="5"/>
	<a xlink:href="#index"><title>Index</title><image xlink:href="#index" width="2" height="2" x="-2" y="0"/></a>
	<a xlink:href="#events"><title>Events</title><image xlink:href="#events" width="2" height="2" x="-2" y="2"/></a>
	<a xlink:href="#music"><title>Music</title><image xlink:href="#music" width="2" height="2" x="-2" y="4"/></a>
	<a xlink:href="#media"><title>Media</title><image xlink:href="#media" width="2" height="2" x="-2" y="6"/></a>
	<a xlink:href="#links"><title>Links</title><image xlink:href="#links" width="2" height="2" x="-2" y="8"/></a>
	<a xlink:href="#error"><title>Error</title><image xlink:href="#error" width="2" height="2" x="-2" y="10"/></a>
	<a xlink:href="#"><image xlink:href="#" width="2" height="2" x="-2" y="12"/></a>
	<a xlink:href="#favicon"><image xlink:href="#favicon" width="2" height="2" x="-2" y="14"/></a>
	<a xlink:href="#test"><image xlink:href="#test" width="2" height="2" x="16" y="0"/></a>
	<a xlink:href="#svgView(viewBox(0,0,8,8))"><image xlink:href="#svgView(viewBox(0,0,8,8))" width="2" height="2" x="16" y="2"/></a>
	<a xlink:href="#triangle"><use xlink:href="#triangle" width="2" height="2" x="16" y="4"/></a>
	<a xlink:href="#arrow"><use xlink:href="#arrow" width="2" height="2" x="16" y="6"/></a>
	<a xlink:href="#cross"><use xlink:href="#cross" width="2" height="2" x="16" y="8"/></a>
	<a xlink:href="#circle"><use xlink:href="#circle" width="2" height="2" x="16" y="10"/></a>
	<a xlink:href="?#circle"><use xlink:href="?#circle" width="2" height="2" x="16" y="12"/></a>
	<use xlink:href="#circle" width="2" height="2" x="16" y="14"/>
	<symbol id="triangle" viewBox="0 0 14 14" fill="currentcolor">
		<title>Triangle</title>
		<polygon points="2,0 14,7 2,14"/>
	</symbol>
	<symbol id="arrow" viewBox="0 0 5 10" stroke="currentcolor" stroke-linecap="round">
		<title>Arrow</title>
		<polyline points="1,1 5,5 1,9"/>
	</symbol>
	<symbol id="cross" viewBox="0 0 10 10" stroke="currentcolor" stroke-linecap="round">
		<title>Cross</title>
		<line x1="1" y1="1" x2="9" y2="9"/>
		<line x1="1" y1="9" x2="9" y2="1"/>
	</symbol>
	<symbol id="circle" viewBox="0 0 2 2" fill="currentcolor">
		<title>Circle</title>
		<circle cx="1" cy="1" r="1"/>
	</symbol>
	<script type="text/javascript">'use strict';
		(window.onhashchange = e=>document.querySelector('[rel="icon"]').href = window.location.hash||'#test')();
	</script>
</svg>
