<?xml version="1.0" encoding="utf-8"?>
<!DOCTYPE svg PUBLIC "-//W3C//DTD SVG 1.1//EN" "http://www.w3.org/Graphics/SVG/1.1/DTD/svg11.dtd">
<?xml-model schematypens="http://relaxng.org/ns/structure/1.0" href="http://www.w3.org/Graphics/SVG/1.2/rng/Full-1.2/Full-1.2.rng"?>
<svg id="favicon" width="48" height="48" viewBox="0 0 48 48" xmlns="http://www.w3.org/2000/svg" xmlns:xlink="http://www.w3.org/1999/xlink">
	<metadata>
		<meta name="robots" content="noindex, nofollow" xmlns="http://www.w3.org/1999/xhtml"/>
		<link rel="icon" href="#" xmlns="http://www.w3.org/1999/xhtml"/>
	</metadata>
	<title>Favicon</title>
	<desc>Favicon</desc>
	<style type="text/css">
		:root {width: 100%; height: 100%; fill: none; color: #FFF; background-color: #EDD;}
		rect:target {fill: var(--colour, none);}
		a:hover {color: #000; background-color: #FFF;}
		#c {stroke: currentcolor; stroke-width: 8; stroke-dasharray: 80; stroke-dashoffset: -10; stroke-linecap: round;}
	</style>
	<view id="test" viewBox="20 20 100 100"><title>Test</title></view>
	<a xlink:href="#index"><title>Index</title><image xlink:href="#index" width="8" height="8" x="-8" y="0"/></a>
	<a xlink:href="#events"><title>Events</title><image xlink:href="#events" width="8" height="8" x="-8" y="8"/></a>
	<a xlink:href="#music"><title>Music</title><image xlink:href="#music" width="8" height="8" x="-8" y="16"/></a>
	<a xlink:href="#media"><title>Media</title><image xlink:href="#media" width="8" height="8" x="-8" y="24"/></a>
	<a xlink:href="#links"><title>Links</title><image xlink:href="#links" width="8" height="8" x="-8" y="32"/></a>
	<a xlink:href="#error"><title>Error</title><image xlink:href="#error" width="8" height="8" x="-8" y="40"/></a>
	<rect id="index" width="100%" height="100%" style="--colour: #EDD;"/>
	<rect id="events" width="100%" height="100%" style="--colour: #EDD;"/>
	<rect id="music" width="100%" height="100%" style="--colour: #EAE;"/>
	<rect id="media" width="100%" height="100%" style="--colour: #EEA;"/>
	<rect id="links" width="100%" height="100%" style="--colour: #AEE;"/>
	<rect id="error" width="100%" height="100%" style="--colour: #F00;"/>
	<circle id="c" cx="50%" cy="50%" r="16"/>
	<a xlink:href="#triangle"><use xlink:href="#triangle" width="8" height="8" x="48" y="0"/></a>
	<a xlink:href="#cross"><use xlink:href="#cross" width="8" height="8" x="48" y="8"/></a>
	<a xlink:href="#arrow"><use xlink:href="#arrow" width="8" height="8" x="48" y="16"/></a>
	<a xlink:href="?#circle"><use xlink:href="?#circle" width="8" height="8" x="48" y="24"/></a>
	<a xlink:href="#circle"><use xlink:href="#circle" width="8" height="8" x="48" y="32"/></a>
	<use xlink:href="#circle" width="8" height="8" x="48" y="40"/>
	<symbol id="triangle" viewBox="0 0 14 14" fill="currentcolor">
		<title>Triangle</title>
		<polygon points="2,0 14,7 2,14"/>
	</symbol>
	<symbol id="cross" viewBox="0 0 10 10" stroke="currentcolor" stroke-linecap="round">
		<title>Cross</title>
		<line x1="1" y1="1" x2="9" y2="9"/>
		<line x1="1" y1="9" x2="9" y2="1"/>
	</symbol>
	<symbol id="arrow" viewBox="0 0 5 10" stroke="currentcolor" stroke-linecap="round">
		<title>Arrow</title>
		<polyline points="1,1 5,5 1,9"/>
	</symbol>
	<symbol id="circle" viewBox="0 0 1 1" fill="currentcolor">
		<title>Circle</title>
		<circle cx="50%" cy="50%" r="50%"/>
	</symbol>
	<script type="text/javascript">
		window.onhashchange = e=>document.querySelector('link').href = window.location.hash||'#';
		window.onhashchange();
	</script>
</svg>
